<svg xmlns="http://www.w3.org/2000/svg" style="display:none"><defs><style>.cls-1{fill:#fec708;fill-rule:evenodd}</style><style>.cls-1{fill:#fff;fill-rule:evenodd}</style><style>.cls-1{fill:#fff;fill-rule:evenodd}</style><style>.cls-1{fill:#fff;fill-rule:evenodd}</style><style>.cls-1{fill:#fff;fill-rule:evenodd}</style></defs><symbol id="carousel-arrow-left" viewBox="0 0 16.062 30"><path class="cls-1" d="M.247 14.39L14.568.23a.851.851 0 0 1 1.215 0 .839.839 0 0 1 0 1.2L2.073 14.99l13.71 13.56a.839.839 0 0 1 0 1.2.885.885 0 0 1-.605.25.839.839 0 0 1-.6-.25L.257 15.58a.832.832 0 0 1-.01-1.19z"/></symbol><symbol id="carousel-arrow-right" viewBox="0 0 16.06 30"><path class="cls-1" d="M15.78 14.39L1.46.23a.845.845 0 0 0-1.21 0 .833.833 0 0 0 0 1.2l13.71 13.56L.25 28.55a.833.833 0 0 0 0 1.2.875.875 0 0 0 .6.25.855.855 0 0 0 .61-.25l14.32-14.17a.839.839 0 0 0 0-1.19z"/></symbol><symbol id="logo-telegram" viewBox="0 0 21.032 17.313"><path class="cls-1" d="M21.023-.008L-.012 8.108l5.514 1.987 1.963 6.7 3.615-3.179 5.88 3.686zM7.751 10.953L7.544 12.7l-.815-2.781 7.679-4.747zm6.9-7.289L5.944 9.051l-2.715-.978zM8.586 14.248l.248-2.04 1.21.754zm.72-3.1l9.846-8.56-3.008 12.84z"/></symbol><symbol id="logo-viber" viewBox="0 0 24 21.844"><path class="cls-1" d="M12.9 4.721c3.17.1 6.023 2.752 5.985 5.575a.739.739 0 0 0 .765.713h.01a.744.744 0 0 0 .774-.7c.049-3.608-3.447-6.878-7.482-7a.707.707 0 1 0-.052 1.412zm-.182 2.341c1.972.212 3.564 1.711 3.548 3.343a.741.741 0 0 0 .768.71h.007a.743.743 0 0 0 .774-.7c.021-2.328-2.184-4.46-4.916-4.753a.76.76 0 0 0-.859.616.723.723 0 0 0 .682.784zm6.615 6.559l-.223-.154a21.454 21.454 0 0 0-1.243-.812l-.274-.171a3.039 3.039 0 0 0-2.13-.539A2.507 2.507 0 0 0 13.869 13c-.1.139-.2.272-.651.09a7.239 7.239 0 0 1-2.018-1.195l-1.354-1.754c-.228-.486-.1-.632.207-.819a1.922 1.922 0 0 0 1.146-1.725c-.062-1-2.239-3.649-3.279-3.989a2.392 2.392 0 0 0-1.469-.007 3.691 3.691 0 0 0-2.358 1.765 2.942 2.942 0 0 0 .046 2.611c2.167 4.746 6.039 8.215 11.508 10.314a4.786 4.786 0 0 0 .762.2l.131.027a.926.926 0 0 0 .219.023 4.369 4.369 0 0 0 3.671-2.475c.537-1.337-.484-2.031-1.093-2.445zm-.361 1.973a2.863 2.863 0 0 1-2.149 1.543l-.084-.017a3.266 3.266 0 0 1-.49-.126 18.4 18.4 0 0 1-10.68-9.557 1.686 1.686 0 0 1-.068-1.484 2.239 2.239 0 0 1 1.437-1.014.853.853 0 0 1 .248-.041.608.608 0 0 1 .2.033 7.9 7.9 0 0 1 2.268 2.746c.008.114-.02.209-.458.475a1.841 1.841 0 0 0-.73 2.63.6.6 0 0 0 .071.113l1.441 1.867a.816.816 0 0 0 .1.1 8.756 8.756 0 0 0 2.515 1.513 2.031 2.031 0 0 0 2.564-.589 1.035 1.035 0 0 1 .6-.459 1.6 1.6 0 0 1 .962.315l.281.174c.392.244.786.488 1.158.755.083.06.169.118.254.176.656.45.688.539.564.847zM17.558.011H6.438C2.948.011 0 2.692 0 5.864v10.111c0 3.173 2.948 5.854 6.438 5.854h11.124c3.489 0 6.438-2.681 6.438-5.854V5.864C24 2.691 21.052.01 17.562.01zm4.89 15.964a4.746 4.746 0 0 1-4.89 4.446H6.438a4.747 4.747 0 0 1-4.89-4.446V5.864a4.747 4.747 0 0 1 4.89-4.446h11.124a4.747 4.747 0 0 1 4.89 4.446v10.111z"/></symbol><symbol id="logo-whatsapp" viewBox="0 0 24 21.844"><path id="Forma_1" data-name="Forma 1" class="cls-1" d="M842 33.264c0 5.87-5.274 10.628-11.782 10.628a12.736 12.736 0 0 1-5.695-1.323L818 44.454l2.127-5.7a9.812 9.812 0 0 1-1.691-5.487c0-5.87 5.275-10.629 11.782-10.629S842 27.394 842 33.264zm-11.782-8.935c-5.462 0-9.906 4.008-9.906 8.935A8.319 8.319 0 0 0 822.2 38.5l-1.237 3.319 3.806-1.1a10.625 10.625 0 0 0 5.45 1.478c5.462 0 9.906-4.008 9.906-8.935s-4.445-8.933-9.907-8.933zm5.95 11.383a1.506 1.506 0 0 0-.554-.3c-.289-.13-1.709-.761-1.973-.847a.481.481 0 0 0-.651.13c-.192.261-.746.848-.914 1.021a.474.474 0 0 1-.626.066 8.127 8.127 0 0 1-2.322-1.293 7.993 7.993 0 0 1-1.607-1.8.36.36 0 0 1 .127-.531c.13-.117.289-.3.433-.456a1.735 1.735 0 0 0 .289-.434.44.44 0 0 0-.024-.456c-.073-.13-.651-1.413-.891-1.934a.549.549 0 0 0-.65-.434c-.168 0-.361-.023-.553-.023a1.118 1.118 0 0 0-.771.326 2.815 2.815 0 0 0-1.01 2.173 4.821 4.821 0 0 0 1.179 2.68 11.441 11.441 0 0 0 4.933 3.933c2.937 1.043 2.937.695 3.466.652A2.935 2.935 0 0 0 836 36.951a2 2 0 0 0 .168-1.24z" transform="translate(-818 -22.625)"/></symbol><symbol id="temp-icon-left-arrow" viewBox="0 0 31.494 31.494"><path d="M10.273 5.01a1.117 1.117 0 0 1 1.587 1.57l-8.047 8.047h26.554c.62 0 1.127.492 1.127 1.11 0 .62-.508 1.128-1.127 1.128H3.813l8.047 8.032c.43.444.43 1.16 0 1.587a1.112 1.112 0 0 1-1.587 0L.32 16.532a1.12 1.12 0 0 1 0-1.57l9.953-9.953z" fill="#1E201D"/></symbol><symbol id="temp-icon-right-arrow" viewBox="0 0 31.49 31.49"><path d="M21.205 5.007a1.117 1.117 0 0 0-1.587 1.57l8.047 8.048H1.11c-.618 0-1.11.493-1.11 1.112 0 .62.492 1.127 1.11 1.127h26.555l-8.047 8.032c-.43.444-.43 1.16 0 1.587.444.444 1.16.444 1.587 0l9.952-9.952a1.092 1.092 0 0 0 0-1.57l-9.952-9.95z" fill="#1E201D"/></symbol></svg>